<?xml version="1.0" standalone="no"?><!DOCTYPE svg PUBLIC "-//W3C//DTD SVG 1.1//EN" "http://www.w3.org/Graphics/SVG/1.1/DTD/svg11.dtd"><svg t="1536128350952" class="icon" style="" viewBox="0 0 1024 1024" version="1.1" xmlns="http://www.w3.org/2000/svg" p-id="3378" xmlns:xlink="http://www.w3.org/1999/xlink" width="200" height="200"><defs><style type="text/css"></style></defs><path d="M511.998293 0.005973a49.492756 49.492756 0 0 1 36.180912 14.933159A49.322091 49.322091 0 0 1 563.197696 51.205376v409.595221h409.595221a49.492756 49.492756 0 0 1 36.180912 15.018492 48.980762 48.980762 0 0 1 15.018491 36.095579 49.322091 49.322091 0 0 1-15.018491 36.266243 49.322091 49.322091 0 0 1-36.180912 14.933159H563.197696v409.595222a48.980762 48.980762 0 0 1-15.018491 36.180911A49.066094 49.066094 0 0 1 511.998293 1023.994027a49.066094 49.066094 0 0 1-36.180911-15.103824 48.980762 48.980762 0 0 1-15.018491-36.095579V563.199403H51.203669a49.322091 49.322091 0 0 1-36.180911-15.018492A49.407424 49.407424 0 0 1 0.004267 512c0-14.079836 5.034608-26.197028 15.018491-36.095579A49.492756 49.492756 0 0 1 51.203669 460.715265h409.595222V51.205376c0-14.2505 5.034608-26.28236 15.018491-36.266244A49.492756 49.492756 0 0 1 511.998293 0.005973" fill="#999999" p-id="3379"></path></svg>