<?xml version="1.0" standalone="no"?><!DOCTYPE svg PUBLIC "-//W3C//DTD SVG 1.1//EN" "http://www.w3.org/Graphics/SVG/1.1/DTD/svg11.dtd"><svg t="1536127409275" class="icon" style="" viewBox="0 0 1024 1024" version="1.1" xmlns="http://www.w3.org/2000/svg" p-id="3269" xmlns:xlink="http://www.w3.org/1999/xlink" width="200" height="200"><defs><style type="text/css"></style></defs><path d="M512 702.171429c-36.571429 0-65.828571-29.257143-65.828571-65.828572V248.685714l-21.942858 21.942857c-21.942857 21.942857-65.828571 21.942857-87.771428 0-21.942857-21.942857-21.942857-65.828571 0-87.771428L512 0l182.857143 182.857143c21.942857 21.942857 21.942857 65.828571 0 87.771428-21.942857 21.942857-65.828571 21.942857-87.771429 0l-29.257143-21.942857v394.971429c0 29.257143-29.257143 58.514286-65.828571 58.514286z m380.342857 197.485714v-512c0-36.571429 29.257143-65.828571 65.828572-65.828572s65.828571 29.257143 65.828571 65.828572V1024H0V387.657143c0-36.571429 29.257143-65.828571 65.828571-65.828572s65.828571 29.257143 65.828572 65.828572v512h760.685714z" fill="#fff" p-id="3270"></path></svg>