<?xml version="1.0" standalone="no"?><!DOCTYPE svg PUBLIC "-//W3C//DTD SVG 1.1//EN" "http://www.w3.org/Graphics/SVG/1.1/DTD/svg11.dtd"><svg t="1536223359559" class="icon" style="" viewBox="0 0 1024 1024" version="1.1" xmlns="http://www.w3.org/2000/svg" p-id="2544" xmlns:xlink="http://www.w3.org/1999/xlink" width="200" height="200"><defs><style type="text/css"></style></defs><path d="M608.376471 945.694118c16.062745 0 30.117647 14.054902 30.117647 30.117647s-14.054902 30.117647-30.117647 30.117647H170.666667c-38.14902 0-70.27451-32.12549-70.27451-70.27451V80.313725C100.392157 42.164706 132.517647 10.039216 170.666667 10.039216h682.666666c38.14902 0 70.27451 32.12549 70.27451 70.274509v710.776471c0 16.062745-14.054902 30.117647-30.117647 30.117647s-30.117647-14.054902-30.117647-30.117647V80.313725c0-6.023529-4.015686-10.039216-10.039216-10.039215H170.666667c-6.023529 0-10.039216 4.015686-10.039216 10.039215v853.333334c0 6.023529 4.015686 10.039216 10.039216 10.039216h437.709804z" fill="#CCCCCC" p-id="2545"></path><path d="M652.54902 895.498039l32.12549-32.12549 56.219608 54.211765v-192.752941c0-12.047059 10.039216-22.086275 22.086274-22.086275 12.047059 0 22.086275 10.039216 22.086275 22.086275v192.752941l56.219608-54.211765 32.12549 32.12549-110.431373 108.42353-110.431372-108.42353zM250.980392 210.823529c-16.062745 0-30.117647-14.054902-30.117647-30.117647S234.917647 150.588235 250.980392 150.588235h512c16.062745 0 30.117647 14.054902 30.117647 30.117647s-14.054902 30.117647-30.117647 30.117647H250.980392zM250.980392 331.294118c-16.062745 0-30.117647-14.054902-30.117647-30.117647s14.054902-30.117647 30.117647-30.117647h512c16.062745 0 30.117647 14.054902 30.117647 30.117647s-14.054902 30.117647-30.117647 30.117647H250.980392zM250.980392 451.764706c-16.062745 0-30.117647-14.054902-30.117647-30.117647s14.054902-30.117647 30.117647-30.117647h291.137255c16.062745 0 30.117647 14.054902 30.117647 30.117647s-14.054902 30.117647-30.117647 30.117647H250.980392z" fill="#CCCCCC" p-id="2546"></path></svg>