<?xml version="1.0" standalone="no"?><!DOCTYPE svg PUBLIC "-//W3C//DTD SVG 1.1//EN" "http://www.w3.org/Graphics/SVG/1.1/DTD/svg11.dtd"><svg t="1536127372487" class="icon" style="" viewBox="0 0 1024 1024" version="1.1" xmlns="http://www.w3.org/2000/svg" p-id="3160" xmlns:xlink="http://www.w3.org/1999/xlink" width="200" height="200"><defs><style type="text/css"></style></defs><path d="M599.771429 431.542857c21.942857-21.942857 65.828571-21.942857 87.771428 0 21.942857 21.942857 21.942857 65.828571 0 87.771429L512 702.171429 336.457143 526.628571c-21.942857-21.942857-21.942857-65.828571 0-87.771428 21.942857-21.942857 65.828571-21.942857 87.771428 0l29.257143 29.257143V65.828571C446.171429 29.257143 475.428571 0 512 0s65.828571 29.257143 65.828571 65.828571v394.971429l21.942858-29.257143z m292.571428 468.114286v-512c0-36.571429 29.257143-65.828571 65.828572-65.828572s65.828571 29.257143 65.828571 65.828572V1024H0V387.657143c0-36.571429 29.257143-65.828571 65.828571-65.828572s65.828571 29.257143 65.828572 65.828572v512h760.685714z" fill="#5E97F0" p-id="3161"></path></svg>