<?xml version="1.0" standalone="no"?><!DOCTYPE svg PUBLIC "-//W3C//DTD SVG 1.1//EN" "http://www.w3.org/Graphics/SVG/1.1/DTD/svg11.dtd"><svg t="1536712965049" class="icon" style="" viewBox="0 0 1024 1024" version="1.1" xmlns="http://www.w3.org/2000/svg" p-id="2498" xmlns:xlink="http://www.w3.org/1999/xlink" width="200" height="200"><defs><style type="text/css"></style></defs><path d="M512 0C230.4 0 0 230.4 0 512s230.4 512 512 512 512-230.4 512-512S793.6 0 512 0z m34.133333 802.133333c0 17.066667-12.8 34.133333-34.133333 34.133334-17.066667 0-34.133333-12.8-34.133333-34.133334 0-17.066667 12.8-34.133333 34.133333-34.133333 17.066667 0 34.133333 12.8 34.133333 34.133333z m0-128c0 17.066667-12.8 34.133333-34.133333 34.133334-17.066667 0-34.133333-12.8-34.133333-34.133334V226.133333c0-17.066667 12.8-34.133333 34.133333-34.133333 17.066667 0 34.133333 12.8 34.133333 34.133333v448z" fill="#FFBF00" p-id="2499"></path></svg>