<?xml version="1.0" standalone="no"?><!DOCTYPE svg PUBLIC "-//W3C//DTD SVG 1.1//EN" "http://www.w3.org/Graphics/SVG/1.1/DTD/svg11.dtd"><svg t="1536290563295" class="icon" style="" viewBox="0 0 1024 1024" version="1.1" xmlns="http://www.w3.org/2000/svg" p-id="2464" xmlns:xlink="http://www.w3.org/1999/xlink" width="200" height="200"><defs><style type="text/css"></style></defs><path d="M512 950.857143c241.371429 0 438.857143-197.485714 438.857143-438.857143s-197.485714-438.857143-438.857143-438.857143-438.857143 197.485714-438.857143 438.857143 197.485714 438.857143 438.857143 438.857143z m0 73.142857c-285.257143 0-512-226.742857-512-512s226.742857-512 512-512 512 226.742857 512 512-226.742857 512-512 512z" fill="#5E97F0" p-id="2465"></path><path d="M512 512m-219.428571 0a219.428571 219.428571 0 1 0 438.857142 0 219.428571 219.428571 0 1 0-438.857142 0Z" fill="#5E97F0" p-id="2466"></path></svg>