<?xml version="1.0" standalone="no"?><!DOCTYPE svg PUBLIC "-//W3C//DTD SVG 1.1//EN" "http://www.w3.org/Graphics/SVG/1.1/DTD/svg11.dtd"><svg t="1536131773333" class="icon" style="" viewBox="0 0 1024 1024" version="1.1" xmlns="http://www.w3.org/2000/svg" p-id="3487" xmlns:xlink="http://www.w3.org/1999/xlink" width="200" height="200"><defs><style type="text/css"></style></defs><path d="M0 219.428571c0-124.342857 95.085714-219.428571 219.428571-219.428571h585.142858c124.342857 0 219.428571 95.085714 219.428571 219.428571v585.142858c0 124.342857-95.085714 219.428571-219.428571 219.428571H219.428571c-124.342857 0-219.428571-95.085714-219.428571-219.428571V219.428571z m307.2 263.314286C292.571429 446.171429 248.685714 438.857143 219.428571 453.485714c-36.571429 21.942857-43.885714 58.514286-29.257142 95.085715l124.342857 212.114285c7.314286 14.628571 29.257143 29.257143 51.2 36.571429h7.314285c14.628571 0 36.571429-7.314286 43.885715-21.942857l402.285714-402.285715c29.257143-29.257143 29.257143-65.828571 0-95.085714s-65.828571-29.257143-95.085714 0L387.657143 614.4 307.2 482.742857z" fill="#5E97F0" p-id="3488"></path></svg>