<?xml version="1.0" standalone="no"?><!DOCTYPE svg PUBLIC "-//W3C//DTD SVG 1.1//EN" "http://www.w3.org/Graphics/SVG/1.1/DTD/svg11.dtd"><svg t="1536223398081" class="icon" style="" viewBox="0 0 1212 1024" version="1.1" xmlns="http://www.w3.org/2000/svg" p-id="2654" xmlns:xlink="http://www.w3.org/1999/xlink" width="236.71875" height="200"><defs><style type="text/css"></style></defs><path d="M395.636364 640l209.454545-209.454545 209.454546 209.454545-60.509091 60.509091-104.727273-104.727273v370.036364c0 23.272727-18.618182 44.218182-44.218182 44.218182-23.272727 0-44.218182-18.618182-44.218182-44.218182V595.781818l-104.727272 104.727273-60.509091-60.509091zM616.727273 16.290909c179.2 0 330.472727 128 365.381818 300.218182 125.672727 0 230.4 102.4 230.4 230.4 0 121.018182-93.090909 218.763636-209.454546 225.745454H884.363636c-23.272727 0-44.218182-18.618182-44.218181-41.890909s18.618182-41.890909 41.890909-41.890909h102.4c76.8-2.327273 137.309091-62.836364 137.309091-139.636363s-60.509091-141.963636-137.309091-144.290909l-65.163637 2.327272c-11.636364 0-20.945455-9.309091-23.272727-20.945454 0 0-4.654545-51.2-2.327273-51.2-25.6-130.327273-139.636364-230.4-279.272727-230.4-83.781818 0-160.581818 37.236364-211.781818 97.745454 0 0-13.963636 13.963636-25.6 32.581818-9.309091 13.963636-11.636364 23.272727-11.636364 23.272728-4.654545 9.309091-18.618182 18.618182-30.254545 16.290909 0 0-44.218182-4.654545-69.818182-4.654546-100.072727 16.290909-179.2 102.4-179.2 209.454546 0 116.363636 95.418182 207.127273 211.781818 207.127273 23.272727 0 48.872727 20.945455 48.872727 44.218181 0 23.272727-23.272727 44.218182-48.872727 44.218182C132.654545 772.654545 0 642.327273 0 479.418182S132.654545 179.2 297.890909 179.2h11.636364c65.163636-97.745455 179.2-162.909091 307.2-162.909091z" fill="#CCCCCC" p-id="2655"></path></svg>